<svg xmlns="http://www.w3.org/2000/svg" width="192" height="192" viewBox="0 0 192 192" role="img" aria-label="daily82">
  <rect width="192" height="192" rx="26" ry="26" fill="#E5261F"/>
  <path d="M27.18 1.02L27.18 1.02Q13.86 1.02 8.16-6.61Q2.47-14.23 2.47-28.20L2.47-28.20L2.47-34.48Q2.47-41.68 4.19-46.14Q5.91-50.60 10.53-52.96L10.53-52.96Q6.18-54.73 4.35-58.89Q2.52-63.06 2.52-69.23L2.52-69.23L2.52-71.70Q2.52-84.27 8.84-89.99Q15.15-95.71 27.18-95.71L27.18-95.71Q39.53-95.71 45.65-89.83Q51.78-83.95 51.78-70.95L51.78-70.95Q51.78-64.13 50.17-59.51Q48.55-54.89 43.77-52.85L43.77-52.85Q48.88-50.22 50.38-45.95Q51.88-41.68 51.88-34.48L51.88-34.48L51.88-28.20Q51.88-14.23 46.19-6.61Q40.50 1.02 27.18 1.02ZM27.18-60.91L27.18-60.91Q32.17-60.91 32.17-69.93L32.17-69.93Q32.17-72.94 31.13-75.63Q30.08-78.31 27.18-78.31L27.18-78.31Q24.28-78.31 23.23-75.63Q22.18-72.94 22.18-69.93L22.18-69.93Q22.18-60.91 27.18-60.91ZM27.18-17.67L27.18-17.67Q32.33-17.67 32.33-26.00L32.33-26.00L32.33-34.64Q32.33-38.94 31.18-41.36Q30.02-43.77 27.18-43.77L27.18-43.77Q24.22-43.77 23.15-41.36Q22.08-38.94 22.08-34.64L22.08-34.64L22.08-26.00Q22.08-17.67 27.18-17.67ZM102.32 0L53.29 0L53.29-4.51Q53.29-11.55 55.46-17.16Q57.64-22.77 61.07-27.58Q64.51-32.39 68.32-37.01L68.32-37.01Q72.03-41.52 75.39-46.27Q78.74-51.03 80.87-56.58Q82.99-62.14 82.99-69.07L82.99-69.07Q82.99-72.40 81.99-74.79Q81.00-77.18 77.89-77.18L77.89-77.18Q73.16-77.18 73.16-68.75L73.16-68.75L73.16-57.20L53.29-57.20Q53.23-58.44 53.15-60.00Q53.07-61.55 53.07-63.00L53.07-63.00Q53.07-73.21 55.22-80.32Q57.37-87.44 62.82-91.17Q68.27-94.91 78.15-94.91L78.15-94.91Q89.92-94.91 96.44-88.30Q102.97-81.69 102.97-69.45L102.97-69.45Q102.97-61.12 100.82-54.87Q98.67-48.61 95.13-43.48Q91.58-38.35 87.34-33.25L87.34-33.25Q84.33-29.65 81.51-25.89Q78.69-22.13 76.54-17.83L76.54-17.83L102.32-17.83L102.32 0Z" fill="#15110E" transform="translate(49.28 149.35)"/>
  <path d="M27.18 1.02L27.18 1.02Q13.86 1.02 8.16-6.61Q2.47-14.23 2.47-28.20L2.47-28.20L2.47-34.48Q2.47-41.68 4.19-46.14Q5.91-50.60 10.53-52.96L10.53-52.96Q6.18-54.73 4.35-58.89Q2.52-63.06 2.52-69.23L2.52-69.23L2.52-71.70Q2.52-84.27 8.84-89.99Q15.15-95.71 27.18-95.71L27.18-95.71Q39.53-95.71 45.65-89.83Q51.78-83.95 51.78-70.95L51.78-70.95Q51.78-64.13 50.17-59.51Q48.55-54.89 43.77-52.85L43.77-52.85Q48.88-50.22 50.38-45.95Q51.88-41.68 51.88-34.48L51.88-34.48L51.88-28.20Q51.88-14.23 46.19-6.61Q40.50 1.02 27.18 1.02ZM27.18-60.91L27.18-60.91Q32.17-60.91 32.17-69.93L32.17-69.93Q32.17-72.94 31.13-75.63Q30.08-78.31 27.18-78.31L27.18-78.31Q24.28-78.31 23.23-75.63Q22.18-72.94 22.18-69.93L22.18-69.93Q22.18-60.91 27.18-60.91ZM27.18-17.67L27.18-17.67Q32.33-17.67 32.33-26.00L32.33-26.00L32.33-34.64Q32.33-38.94 31.18-41.36Q30.02-43.77 27.18-43.77L27.18-43.77Q24.22-43.77 23.15-41.36Q22.08-38.94 22.08-34.64L22.08-34.64L22.08-26.00Q22.08-17.67 27.18-17.67ZM102.32 0L53.29 0L53.29-4.51Q53.29-11.55 55.46-17.16Q57.64-22.77 61.07-27.58Q64.51-32.39 68.32-37.01L68.32-37.01Q72.03-41.52 75.39-46.27Q78.74-51.03 80.87-56.58Q82.99-62.14 82.99-69.07L82.99-69.07Q82.99-72.40 81.99-74.79Q81.00-77.18 77.89-77.18L77.89-77.18Q73.16-77.18 73.16-68.75L73.16-68.75L73.16-57.20L53.29-57.20Q53.23-58.44 53.15-60.00Q53.07-61.55 53.07-63.00L53.07-63.00Q53.07-73.21 55.22-80.32Q57.37-87.44 62.82-91.17Q68.27-94.91 78.15-94.91L78.15-94.91Q89.92-94.91 96.44-88.30Q102.97-81.69 102.97-69.45L102.97-69.45Q102.97-61.12 100.82-54.87Q98.67-48.61 95.13-43.48Q91.58-38.35 87.34-33.25L87.34-33.25Q84.33-29.65 81.51-25.89Q78.69-22.13 76.54-17.83L76.54-17.83L102.32-17.83L102.32 0Z" fill="#EDE7D8" transform="translate(43.28 143.35)"/>
</svg>
